<?xml version="1.0" encoding="UTF-8"?>
<svg id="Layer_1" xmlns="http://www.w3.org/2000/svg" version="1.1" viewBox="0 0 1920 1080">
  <!-- Generator: Adobe Illustrator 29.7.1, SVG Export Plug-In . SVG Version: 2.1.1 Build 8)  -->
  <defs>
    <style>
      .st0 {
        fill: #f38cb0;
      }

      .st1 {
        fill-rule: evenodd;
      }

      .st1, .st2 {
        fill: #6d4f4c;
      }
    </style>
  </defs>
  <path class="st0" d="M810.5,653c24.5.5,39.6-48.9,46.3-68.7.5-2.1,7.3,0,6.8,2.1-8.3,26-23.4,77.1-58.3,77.1-51,0-30.7-92.2-20.8-129.6,3.1-11.5,36.4-8.3,33.3,2.6-8.9,29.7-34.4,116.1-7.3,116.6M824,501c0,8.9-7.3,16.7-16.1,16.7s-15.6-7.8-15.6-16.7,7.3-16.1,15.6-16.1,16.1,7.3,16.1,16.1"/>
  <path class="st0" d="M963.1,372.4c61.4,0-51,142.1-62,156.2l-6.2,26.6c8.8-14.6,21.3-25,39.6-25,60.4,0,55.7,91.1,10.9,122.9,32.8-7.3,53.1-26.6,66.1-68.2.5-2.6,7.8-1,6.8,2.1-9.4,30.2-22.4,49.5-41.1,61.4-16.7,10.4-42.2,15.6-62,15.1-19.8,0-30.7-8.3-35.4-20.8l-2.1,14.6c-1.6,13-34.4,12.5-32.3-5.2,9.4-76.5,41.7-279.1,117.7-279.6M905.3,654.1c37.5-.5,58.8-115.6,24-115.6s-35.4,32.3-41.1,54.7c-2.1,8.9-4.2,18.2-4.2,27.6,0,15.6,4.2,33.3,21.3,33.3M965.1,380.7c-30.2,0-54.7,106.7-60.4,130.7,6.8-8.3,98.9-131.2,60.4-130.7"/>
  <path class="st0" d="M1046.9,653c24.5.5,39.6-48.9,46.3-68.7.5-2.1,7.3,0,6.8,2.1-8.3,26-23.4,77.1-58.3,77.1-51,0-30.7-92.2-20.8-129.6,3.1-11.5,36.4-8.3,33.3,2.6-8.9,29.7-34.4,116.1-7.3,116.6M1060.4,501c0,8.9-7.3,16.7-16.1,16.7s-15.6-7.8-15.6-16.7,7.3-16.1,15.6-16.1,16.1,7.3,16.1,16.1"/>
  <path class="st0" d="M1143.7,652.5c32.8,0,55.7-41.1,63.5-68.2,1-2.1,7.8,0,7.3,2.1-9.4,32.8-36.4,77.6-80.2,77.6-74.5,0-52.1-134.3,21.9-134.3s34.4,10.9,34.4,31.2h-7.3c0-12-8.3-21.9-21.3-21.9-34.4.5-63,113.5-18.2,113.5"/>
  <path class="st0" d="M1324.9,663.4c-25,0-32.8-22.9-32.8-50-10.4,25-27.1,49.5-52.1,49.5-64,0-42.7-133.3,30.7-133.3s25,6.8,30.7,17.2l3.1-13c3.1-11.5,36.4-8.3,33.3,2.1-8.9,30.2-34.4,116.6-7.3,117.1,37,1,34.9-93.7,103.1-93.7,98.4,0,68.7,227-165,227s-388.9-141.6-484.7-21.9c-4.7,6.2-9.9,1-5.7-4.2,111.4-142.1,358.7,12,513.9,12s230.6-205.1,141.6-205.1-56.8,96.3-108.8,96.3M1277,539c-37.5,0-56.8,114-30.2,114,19.8-.5,34.4-30.2,42.2-54.1,3.1-8.9,8.3-28.1,8.3-37.5s-7.8-22.4-20.3-22.4"/>
  <path class="st0" d="M1023.1,448.2c2.4-1.3,4.6-1.7,6.7-1.5,7.1.7,11.4,9.4,13.9,14.4,3.1,6.2,5.3,14.1,5.3,14.1,0,0,8.7-8.1,18.4-10.3,1.2-.3,12.9-2.6,21.1,4.5.8.7,5.4,4.8,6.1,10.7,2.2,17.9-36.9,37.9-55.8,42.3-2,.5-17.4,4-17.4,4,0,0,.4-7.9.5-8.4.5-9.9-5.4-24.1-6.4-40.3-.4-5.8-1.8-24.6,7.7-29.6"/>
  <path class="st0" d="M433.9,671.2c55.8-16.6,57.5-26,66.3-67.4l54.1-253.6c9.4-43.6,9.9-50.8-37.6-67.4l.6-3.3h163c69.1,0,109.9,33.7,109.9,80.7s-44.2,79.5-103.9,91.7l-.6,1.1c48.6,11.6,84,42,84,91.7,0,74-78.4,129.8-169.6,129.8h-166.8l.6-3.3ZM718.9,543.1c0-57.5-33.1-77.3-76.2-75.7l-65.2,2.8-36.5,167.9c-2.2,9.9,16.6,22.1,55.2,22.1,82.3,0,122.6-54.7,122.6-117.1M635.5,454.7c56.9,0,105-44.2,105-97.2s-25.4-65.2-67.4-65.2h-58l-34.8,162.4h55.2Z"/>
  <path class="st2" d="M1299.8,369.7c-14.6,17.9-53.1,37.7-87.6,45-5.8,1.2-12.1,2.2-18.6,2.8-13.1,1.3-38.3,2.3-60.8-5.2-10.1-3.4-22.8-10.1-31.5-19.4,1.1,25.5,11.9,61,39.9,83.9,20,16.3,45.4,23.3,74.2,20.4,5.2-.5,10.5-1.3,15.9-2.5,35.4-7.5,61.4-25.9,75.1-53,14.8-29.4,12.4-62.5,4.8-86.1l-11.5,14.1ZM1301.6,381.1c1.9-1.6,4.5-3.8,6.6-6.2.2.3.3.7.3,1.1,0,0,0,.4.2,1.1,0,.4.1.8.2,1.3,0,.5.2,1.1.2,1.8.3,2.6.5,5.9.6,9.2.2,6.6-.2,13.1-.2,13.1,0,0-1.8-6.3-4-12.3-1.1-3-2.3-6-3.3-8.1-.2-.4-.4-.7-.5-1.1M1123.5,421.7c.6,1.6,1.1,3.3,1.9,5.1.7,1.8,1.5,3.7,2.3,5.7.8,2,1.7,4,2.7,6,1,2,2,4,3.1,6,1,2,2.2,4,3.3,5.9,1.2,1.9,2.2,3.9,3.4,5.6.6.9,1.1,1.8,1.7,2.7.6.8,1.2,1.7,1.7,2.5,1.1,1.6,2.3,3.1,3.3,4.5,1,1.4,2.1,2.5,3,3.6.9,1.1,1.7,2,2.4,2.7,1.4,1.5,2.2,2.3,2.2,2.3h0c.2.2.1.4,0,.6-.1.1-.4.1-.5,0,0,0-.9-.7-2.6-1.9-.8-.6-1.8-1.3-2.9-2.3-1.1-.9-2.4-1.9-3.6-3.2-1.3-1.2-2.7-2.5-4.1-4-.7-.7-1.4-1.5-2.2-2.3-.7-.8-1.4-1.6-2.2-2.5-1.5-1.7-2.9-3.5-4.3-5.3-1.4-1.9-2.8-3.8-4-5.9-1.3-2-2.5-4.1-3.6-6.1-1.1-2.1-2.2-4.1-3.2-6.1-1-2-1.9-4-2.7-5.9-.8-1.9-1.5-3.7-2.2-5.4-.6-1.7-1.2-3.2-1.6-4.6-.4-1.4-.9-2.7-1.1-3.6-.3-1.1-.6-2-.7-2.5,2.9,2,6.6,3.8,9.9,5.2.3.9.6,1.9.9,2.9"/>
  <path class="st2" d="M1200.5,371.3c-2.3,4.7-4.2,9.2-5.6,13.2-.8,2.3-1.4,4.4-2,6.5,1.3,0,2.7.1,4.1,0,.5,0,1,0,1.4,0,.4-1.5.9-3.1,1.5-4.8,1.8-5.1,4.1-10.5,6.8-15.8,8.6-17,20.7-33.9,29.4-43.5.6-.7,1.3-1.4,1.9-2-.3.6-.7,1.3-1,1.9-1.9,3.7-4.3,8.3-7.1,14.3-4.3,9.1-8.6,18.8-12.3,27.9-3.1,7.5-5.8,14.6-7.9,20.6,0,.2-.2.5-.2.7,0,0,0,0,.1,0,1.9-.2,3.8-.4,5.8-.7,2.4-6.7,5.2-14.1,8.3-21.4,6.8-16.2,14.5-32.4,19.5-41.6.5-.9.9-1.7,1.4-2.5-.1.8-.2,1.6-.4,2.4-1.5,9.4-4.9,24.7-8.9,40.2-1.8,7-3.8,14-5.9,20.6,2-.4,4-.8,6-1.3,1.9-6.2,3.8-13,5.6-20.1,1.7-6.4,3.3-13,4.7-19.4,1.7-7.5,2.8-13.2,3.6-17.6,1,8.7.9,22-.5,36-.6,6.1-1.5,12.4-2.7,18.4,1.9-.5,3.8-1.1,5.6-1.6,1-5.6,1.8-11.5,2.4-17.5,1.4-14,1.6-28,0-37.7-.6-3.5-1.3-6.5-2.4-8.7,1.5,0,2.9-.8,3.5-2.2l6.3-15.9c7.3-18.8,39.7-54.7,13.4-63.8-26.4-9.1-22.9,39.2-28.8,58.5l-4.8,16.4c-.4,1.5.2,3.1,1.4,3.9-4,2-9,6.7-14.3,12.8-10,11.7-20.9,28.9-28,43.6M1276.2,252.2c0-.9,0-1.8,0-2.7,0-.9,0-1.7.1-2.5,0-.4,0-.7,0-1.1,0-.4,0-.7,0-1,0-.3,0-.6,0-.9,0-.3-.2-.6-.3-.8-.2-.5-.3-.8-.3-.8,0,0,.3,0,.8,0,.3,0,.6,0,.9.3.3.2.8.4,1.2.8.3.3.7.7,1,1.2.3.5.6,1,.8,1.5.2.5.4,1.1.4,1.7.1.6.1,1.2,0,1.7,0,2.3-1,4.4-2,5.8-.5.7-1,1.2-1.4,1.5-.4.3-.7.5-.7.5,0,0,0-.3-.2-.8-.1-.5-.2-1.2-.3-2,0-.8-.1-1.6-.1-2.5"/>
  <path class="st0" d="M1134.3,407.9c24,8,55.2,6.8,76.9,2.2,34.4-7.3,71.5-27,84.9-43.3-24,16.8-66.2,28.3-99,29.1-37.6.7-49.3-28.8-46-53h0c2.8-16.3-3.6-30.1-15-30.5-23.2-1-23,27.1-17,40.7-7.7-6.6-34.9-1.7-20.2,28.3,5.8,11.9,21.5,21.9,35.4,26.5M1135.6,321.2c.7-1.4,2.5-2,3.9-1.3.2.1.5.3.7.5,0,0,.2.2.7.6.2.1.5.5.9,1,.2.2.4.5.6.7.1.2.3.5.5.7.7,1,1.1,2.3,1.5,3.6.3,1.3.5,2.7.6,4,.2,2.7,0,5.3-.2,7.2-.2,1.9-.4,3.2-.4,3.2,0,0-.2-1.3-.5-3.2-.3-1.9-.8-4.4-1.7-6.7-.4-1.1-.9-2.2-1.5-3.1-.6-.9-1.1-1.6-1.7-2.1-.1-.1-.3-.2-.4-.3-.1,0-.2-.1-.3-.2-.2,0-.3-.2-.6-.3-.5-.2-.8-.4-.8-.4-1.4-.7-2-2.5-1.3-3.9"/>
  <path class="st0" d="M1174.9,371.7c-1.8-16.1,3.2-24.7,8-34.6,1.6-3.2,3.1-6.6,4.4-10.4,5.3-15.5-10.1-21.8-16.9-9.2-3.2,6.1-3.8,15.6-2.7,25.4,1.1,10.5,4,21.4,7.2,28.8"/>
  <path class="st0" d="M1108.2,293.2c2.1-13.7-11.3-13.2-14.9-1-3.6,12.2,8,36.9,16.4,44.2-4.4-13.8-4.6-22.5-1.4-43.2"/>
  <path class="st0" d="M1299,335.3c.5-19.7-23.8-18.4-20.2,4.2,4,24.2-19.2,37.3-19.2,37.3,17.3-5.7,38.7-14.9,39.4-41.4"/>
  <path class="st0" d="M1121,245.5c4.4,1.3,7.1,5.5,9.1,9.4,2,4,3.4,9.2,3.4,9.2,0,0,5.7-5.3,12-6.7.7-.2,8.4-1.7,13.7,2.9.5.4,3.5,3.1,4,6.9,1.4,11.6-24,24.6-36.2,27.5-1,.2-5.5.4-11,2.5-2,.7-3.5,1.5-4.4,1.9,3.4-5.9,6.8-14.2,4.7-22.9-2.7-11.3-12.8-15.1-11.2-22.1,1.3-5.8,9.9-10.4,16-8.7"/>
  <path class="st1" d="M1323.9,399.3c-4.1,21.9-13.6,53-39.5,75.2-24.2,20.8-53.5,26-53.2,26.9.3.9,29.7-2.6,53.6-21.9,30.7-24.7,37.3-63.1,39.1-80.3"/>
  <path class="st2" d="M739.9,822.7c0-12.8,9.9-22.4,22.8-22.4s19.6,6.9,22,16.5h-7.9c-2.3-5.5-7.6-9.2-14.1-9.2s-15.1,6.5-15.1,15.2,6.5,15.2,15.1,15.2,11.8-3.7,14.1-9.2h7.9c-2.5,9.6-11.1,16.5-22,16.5s-22.8-9.7-22.8-22.4"/>
  <path class="st2" d="M789.2,828.4c0-9.6,7.4-16.8,17.2-16.8s17.2,7.2,17.2,16.8-7.4,16.8-17.2,16.8-17.2-7.2-17.2-16.8M816.2,828.4c0-5.7-4.2-10-9.9-10s-9.9,4.3-9.9,10,4.3,10,9.9,10,9.9-4.3,9.9-10"/>
  <path class="st2" d="M855.4,834.2v7.5c-2.8,2.1-7.2,3.4-11.5,3.4s-8.6-1.3-11.7-3.7l-3.4,3.4h-1.6v-8.2l17.3-17.5h-17v-6.8h26.8v6.8l-17.2,17.4c2.2,1.1,4.8,1.8,7.5,1.8,4.1,0,8.2-1.5,10.9-4.1"/>
  <path class="st2" d="M860.6,802.5c0-2.6,1.9-4.5,4.5-4.5s4.5,1.9,4.5,4.5-1.9,4.5-4.5,4.5-4.5-1.9-4.5-4.5M861.5,812.3h7v32.1h-7v-32.1Z"/>
  <path class="st2" d="M911.1,837.6v6.8h-2c-5.6,0-8.5-2.8-8.5-8.2v-9.7c0-4.9-3.1-8.2-8-8.2s-8.5,3.3-8.5,8.3v17.7h-7v-32.1h7v4.5c2.5-3.4,6.2-5.2,10.8-5.2,7.6,0,12.7,5,12.7,12.6v10.4c0,1.8,1.1,3,2.9,3h.6Z"/>
  <path class="st2" d="M950,837.6v6.8h-2c-5.6,0-8.5-2.8-8.5-8.2v-9.7c0-4.9-3.1-8.2-8-8.2s-8.5,3.3-8.5,8.3v17.7h-7v-45.3h7v17.9c2.5-3.5,6.2-5.4,10.8-5.4,7.6,0,12.7,5,12.7,12.6v10.4c0,1.8,1.1,3,2.9,3h.6Z"/>
  <path class="st2" d="M990.7,837.6v6.8h-2c-4.5,0-7.4-1.9-8.2-5.4-2.6,3.8-6.7,6.2-11.6,6.2-9.1,0-15.8-7.2-15.8-16.8s6.7-16.8,15.8-16.8,8.7,2.2,11.3,5.7v-5h7v22.3c0,1.8,1.1,3,3,3h.6ZM980.1,828.4c0-5.7-4.2-10-9.9-10s-9.9,4.3-9.9,10,4.2,10,9.9,10,9.9-4.3,9.9-10"/>
  <path class="st2" d="M1053.9,820.6v23.8h-6.3v-7.3c-3.3,5.2-8.7,8-15.7,8-13,0-22.8-9.7-22.8-22.4s9.9-22.4,22.8-22.4,18.4,5.8,21.1,14.1h-8.4c-2.5-4.1-7.1-6.9-12.7-6.9-8.5,0-15.1,6.5-15.1,15.2s6.5,15.2,15.1,15.2,12.4-4.3,14-10.6h-12.5v-6.7h20.5Z"/>
  <path class="st2" d="M1059.4,828.4c0-9.6,7.4-16.8,17.2-16.8s17.2,7.2,17.2,16.8-7.4,16.8-17.2,16.8-17.2-7.2-17.2-16.8M1086.4,828.4c0-5.7-4.2-10-9.9-10s-9.9,4.3-9.9,10,4.3,10,9.9,10,9.9-4.3,9.9-10"/>
  <path class="st2" d="M1132.8,837.6v6.8h-2.1c-4.3,0-7.1-1.7-8.1-4.9-2.4,3.6-6,5.7-10.7,5.7-7.4,0-12.3-4.9-12.3-12.4v-20.4h7v18.4c0,4.6,3,7.7,7.5,7.7s8-3.1,8-7.8v-18.2h7v22.3c0,1.8,1.1,3,3,3h.6Z"/>
  <path class="st2" d="M1170.5,837.6v6.8h-1.9c-8,0-12.3-4.7-12.3-12.3s1-7,3-10.8l-11.6-1.5-4.7,24.6h-6.9l5.1-26.1c-1.6-1-2.6-2.8-2.6-4.8,0-2.8,1.9-4.7,4.8-4.7s4.8,1.8,5,4.3l20.9,2.4v1.7c-3.7,5.3-5.8,10-5.8,14s2.1,6.3,5.7,6.3h1.3Z"/>
  <path class="st2" d="M1229.9,837.6v6.8h-2.1c-5.6,0-8.6-2.8-8.6-8.2v-10.6c0-4.4-2.8-7.3-7.1-7.3s-7.6,3-7.6,7.4v18.6h-7v-18.7c0-4.4-2.8-7.3-7.1-7.3s-7.6,3-7.6,7.4v18.6h-7v-32.1h7v4.1c2.3-3.2,5.7-4.9,9.9-4.9s8.7,2.3,10.6,6.2c2.4-4,6.2-6.2,11.2-6.2,7.1,0,11.8,4.8,11.8,12v11.1c0,1.8,1.1,3,3,3h.6Z"/>
  <path class="st2" d="M1267,831.1h-26.5c1,4.7,4.8,7.7,9.9,7.7s6.9-1.7,8.5-4.1h7.8c-2.6,6.3-8.9,10.5-16.5,10.5s-17.3-7.2-17.3-16.8,7.4-16.8,17.1-16.8,17.2,7.2,17.2,16.8,0,1.9-.2,2.6M1240.5,825.3h19c-1.1-4.4-4.9-7.4-9.6-7.4s-8.3,3-9.5,7.4"/>
  <path class="st2" d="M1282.4,818.7v14.6c0,2.8,1.8,4.5,4.7,4.5h3.2v6.5h-4.2c-7,0-10.8-3.5-10.8-9.9v-15.8h-5.4v-6.4h3.3c1.6,0,2.5-.9,2.5-2.5v-6.2h6.7v8.7h7.9v6.4h-7.9Z"/>
</svg>